<svg xmlns="http://www.w3.org/2000/svg" width="856" height="580.552" viewBox="0 0 856 580.552"><defs><style>.a{opacity:0.345;}.b{fill:#ffb300;}.c{fill:#fa8807;}</style></defs><g class="a" transform="translate(0 -418.11)"><path class="b" d="M0,418.11V610.488l17.849,29.421,134.537-221.8Z" transform="translate(0 0)"/><path class="c" d="M274.589,639.91,140.04,418.11,5.5,639.91Z" transform="translate(12.378 0.002)"/><path class="c" d="M88.365,486.344l134.55,221.8,134.537-221.8Z" transform="translate(155.64 111.142)"/><path class="b" d="M398.856,708.14l-134.55-221.8-134.54,221.8Z" transform="translate(228.559 111.142)"/><path class="c" d="M481.637,708.14l-134.55-221.8-134.54,221.8Z" transform="translate(374.363 111.142)"/><path class="b" d="M0,554.577V746.955l17.849,29.422,134.537-221.8Z" transform="translate(0 222.281)"/><path class="b" d="M212.443,554.577l134.55,221.8,134.537-221.8Z" transform="translate(374.128 222.282)"/></g></svg>