<svg xmlns="http://www.w3.org/2000/svg" xmlns:xlink="http://www.w3.org/1999/xlink" width="858.999" height="785.015" viewBox="0 0 858.999 785.015"><defs><style>.a,.e{fill:none;}.b{opacity:0.09;}.c{clip-path:url(#a);}.d{clip-path:url(#b);}.e{stroke:#fff;stroke-miterlimit:10;stroke-width:3.626px;}</style><clipPath id="a"><rect class="a" width="858.999" height="785.015"/></clipPath><clipPath id="b"><rect class="a" width="856.666" height="782.321"/></clipPath></defs><g class="b" transform="translate(-175.673 -120.904)"><g transform="translate(175.673 120.904)"><g class="c"><g transform="translate(1.166 1.347)"><g class="d"><path class="e" d="M643.725,147.122c-32.289-8.785-64.751-17.112-98.3-22.771-1.248-.225-2.66-.318-3.908-.537A1053.189,1053.189,0,0,0,410.449,257.5a1065.931,1065.931,0,0,1,134.036-14.025c159.281-6.748,310.726,23.4,447.422,80.837-98.614-78.444-217.588-140.262-348.182-177.193" transform="translate(-137.826 -121.242)"/><path class="e" d="M378.726,295.377A1051.369,1051.369,0,0,0,179.642,379.29l96.411,124.234A1016.267,1016.267,0,0,1,378.726,295.377" transform="translate(-176.179 -61.756)"/><path class="e" d="M597.324,504.412C777.6,406.161,966.357,364.663,1144.432,373.707c-153.314-78.2-329.267-119.346-515.28-111.567a1057.4,1057.4,0,0,0-264.165,45.087A1013.851,1013.851,0,0,0,262.314,515.37,1227.027,1227.027,0,0,0,394.388,644.444,1192.338,1192.338,0,0,1,597.324,504.412" transform="translate(-162.442 -73.604)"/><path class="e" d="M402.779,579.062A1224.613,1224.613,0,0,1,270.625,449.935a996.765,996.765,0,0,0-58.312,333.892A1230.656,1230.656,0,0,1,402.779,579.062" transform="translate(-170.751 -8.166)"/></g></g></g></g></g></svg>